<?xml version="1.0" encoding="UTF-8" standalone="no"?>
<!-- Created with Inkscape (http://www.inkscape.org/) -->

<svg
   width="1920"
   height="1080"
   viewBox="0 0 507.99998 285.74999"
   version="1.1"
   id="svg1"
   inkscape:version="1.3.2 (091e20ef0f, 2023-11-25)"
   sodipodi:docname="normalisevectors1.svg"
   xmlns:inkscape="http://www.inkscape.org/namespaces/inkscape"
   xmlns:sodipodi="http://sodipodi.sourceforge.net/DTD/sodipodi-0.dtd"
   xmlns:xlink="http://www.w3.org/1999/xlink"
   xmlns="http://www.w3.org/2000/svg"
   xmlns:svg="http://www.w3.org/2000/svg">
  <sodipodi:namedview
     id="namedview1"
     pagecolor="#505050"
     bordercolor="#eeeeee"
     borderopacity="1"
     inkscape:showpageshadow="0"
     inkscape:pageopacity="0"
     inkscape:pagecheckerboard="0"
     inkscape:deskcolor="#141414"
     inkscape:document-units="px"
     inkscape:clip-to-page="true"
     inkscape:zoom="2.3787302"
     inkscape:cx="903.84357"
     inkscape:cy="556.59948"
     inkscape:window-width="1920"
     inkscape:window-height="1045"
     inkscape:window-x="0"
     inkscape:window-y="0"
     inkscape:window-maximized="1"
     inkscape:current-layer="layer1"
     inkscape:export-bgcolor="#0d0d0d00">
    <sodipodi:guide
       position="253.96,142.909"
       inkscape:color="rgb(167,0,255)"
       inkscape:label="Measure"
       orientation="-0.897533,0.440946"
       id="guide2"
       inkscape:locked="false" />
    <sodipodi:guide
       position="253.96,142.909"
       inkscape:color="rgb(167,0,255)"
       inkscape:label=""
       orientation="-0,1"
       id="guide3"
       inkscape:locked="false" />
    <sodipodi:guide
       position="253.96,142.909"
       inkscape:color="rgb(167,0,255)"
       inkscape:label="Start"
       orientation="1,0"
       id="guide4"
       inkscape:locked="false" />
    <sodipodi:guide
       position="259.531,154.248"
       inkscape:color="rgb(167,0,255)"
       inkscape:label="End"
       orientation="-0,1"
       id="guide5"
       inkscape:locked="false" />
    <sodipodi:guide
       position="259.531,154.248"
       inkscape:color="rgb(167,0,255)"
       inkscape:label=""
       orientation="1,0"
       id="guide6"
       inkscape:locked="false" />
    <sodipodi:guide
       position="253.973,142.936"
       inkscape:color="rgb(167,0,255)"
       inkscape:label="Crossing 1"
       orientation="0.440946,0.897533"
       id="guide7"
       inkscape:locked="false" />
    <sodipodi:guide
       position="254,142.99"
       inkscape:color="rgb(167,0,255)"
       inkscape:label="Crossing 2"
       orientation="0.440946,0.897533"
       id="guide8"
       inkscape:locked="false" />
  </sodipodi:namedview>
  <defs
     id="defs1">
    <linearGradient
       id="linearGradient13">
      <stop
         style="stop-color:#2900ff;stop-opacity:1;"
         offset="0"
         id="stop1" />
      <stop
         style="stop-color:#ff00c9;stop-opacity:1;"
         offset="1"
         id="stop2" />
    </linearGradient>
    <linearGradient
       id="linearGradient13-1">
      <stop
         style="stop-color:#ffe900;stop-opacity:1;"
         offset="0"
         id="stop13" />
      <stop
         style="stop-color:#50ff00;stop-opacity:1;"
         offset="1"
         id="stop14" />
    </linearGradient>
    <linearGradient
       inkscape:collect="always"
       xlink:href="#linearGradient13-1"
       id="linearGradient14"
       x1="247.68597"
       y1="124.37167"
       x2="295.52591"
       y2="124.37167"
       gradientUnits="userSpaceOnUse"
       gradientTransform="matrix(0.20929692,-0.07976065,0.06712447,0.1950891,192.79387,134.55391)" />
  </defs>
  <g
     inkscape:label="Layer 1"
     inkscape:groupmode="layer"
     id="layer1">
    <path
       d="M 2.6189347,-2.6695663 V 283.08042 M 15.848101,-2.6695663 V 283.08042 M 29.077267,-2.6695663 V 283.08042 M 42.306433,-2.6695663 V 283.08042 M 55.5356,-2.6695663 V 283.08042 M 68.764766,-2.6695663 V 283.08042 M 81.993932,-2.6695663 V 283.08042 M 95.223098,-2.6695663 V 283.08042 M 108.45226,-2.6695663 V 283.08042 M 121.68143,-2.6695663 V 283.08042 M 134.91059,-2.6695663 V 283.08042 M 148.13976,-2.6695663 V 283.08042 M 161.36892,-2.6695663 V 283.08042 M 174.59809,-2.6695663 V 283.08042 M 187.82726,-2.6695663 V 283.08042 M 201.05642,-2.6695663 V 283.08042 M 214.28559,-2.6695663 V 283.08042 M 227.51475,-2.6695663 V 283.08042 M 240.74392,-2.6695663 V 283.08042 M 253.97309,-2.6695663 V 283.08042 M 267.20225,-2.6695663 V 283.08042 M 280.43142,-2.6695663 V 283.08042 M 293.66059,-2.6695663 V 283.08042 M 306.88975,-2.6695663 V 283.08042 M 320.11892,-2.6695663 V 283.08042 M 333.34808,-2.6695663 V 283.08042 M 346.57725,-2.6695663 V 283.08042 M 359.80642,-2.6695663 V 283.08042 M 373.03558,-2.6695663 V 283.08042 M 386.26475,-2.6695663 V 283.08042 M 399.49391,-2.6695663 V 283.08042 M 412.72308,-2.6695663 V 283.08042 M 425.95225,-2.6695663 V 283.08042 M 439.18141,-2.6695663 V 283.08042 M 452.41058,-2.6695663 V 283.08042 M 465.63975,-2.6695663 V 283.08042 M 478.86891,-2.6695663 V 283.08042 M 492.09808,-2.6695663 V 283.08042 M 505.32724,-2.6695663 V 283.08042 M 2.6189347,-2.6695663 H 510.61891 M 2.6189347,10.5596 H 510.61891 M 2.6189347,23.788766 H 510.61891 M 2.6189347,37.017932 H 510.61891 M 2.6189347,50.247099 H 510.61891 M 2.6189347,63.476265 H 510.61891 M 2.6189347,76.705431 H 510.61891 M 2.6189347,89.934597 H 510.61891 M 2.6189347,103.16376 H 510.61891 M 2.6189347,116.39293 H 510.61891 M 2.6189347,129.62209 H 510.61891 M 2.6189347,142.85126 H 510.61891 M 2.6189347,156.08042 H 510.61891 M 2.6189347,169.30959 H 510.61891 M 2.6189347,182.53876 H 510.61891 M 2.6189347,195.76792 H 510.61891 M 2.6189347,208.99709 H 510.61891 M 2.6189347,222.22625 H 510.61891 M 2.6189347,235.45542 H 510.61891 M 2.6189347,248.68459 H 510.61891 M 2.6189347,261.91375 H 510.61891 M 2.6189347,275.14292 H 510.61891"
       style="fill:none;stroke:#000000;stroke-width:0.264583px"
       id="path1" />
    <path
       style="fill:#ffffff;fill-opacity:1;fill-rule:evenodd;stroke:#ffffff;stroke-width:0.264583;stroke-linecap:round;stroke-linejoin:round;stroke-dasharray:none;stroke-opacity:1;paint-order:markers fill stroke"
       d="M 510.56305,142.87499 H -2.5630664"
       id="path9" />
    <path
       style="fill:#fafafa;fill-opacity:1;fill-rule:evenodd;stroke:#ffffff;stroke-width:0.264583;stroke-linecap:round;stroke-linejoin:round;stroke-dasharray:none;stroke-opacity:1;paint-order:markers fill stroke"
       d="M 253.99999,399.43805 V -113.68807"
       id="path10" />
    <rect
       style="fill:none;fill-opacity:1;fill-rule:evenodd;stroke:none;stroke-width:1.32292;stroke-linecap:round;stroke-linejoin:round;stroke-dasharray:none;stroke-opacity:1;paint-order:markers fill stroke"
       id="rect14"
       width="53.472961"
       height="53.821579"
       x="227.44112"
       y="116.66838"
       inkscape:export-filename="normalisevectors2.png"
       inkscape:export-xdpi="96"
       inkscape:export-ydpi="96" />
    <ellipse
       style="fill:none;fill-rule:evenodd;stroke:#ff0012;stroke-width:1.32292;stroke-linecap:round;stroke-linejoin:round;stroke-opacity:1;paint-order:markers fill stroke"
       id="path2"
       cx="253.98863"
       cy="142.87102"
       rx="12.702661"
       ry="12.673612"
       inkscape:export-filename="normalisevectors2.png"
       inkscape:export-xdpi="96"
       inkscape:export-ydpi="96" />
    <path
       id="path12"
       style="display:inline;fill:#ffffff;fill-opacity:1;fill-rule:evenodd;stroke:url(#linearGradient14);stroke-width:1.32292;stroke-linecap:round;stroke-linejoin:round;paint-order:markers fill stroke"
       inkscape:transform-center-x="-0.21006689"
       inkscape:transform-center-y="0.30717191"
       d="m 256.32813,133.99429 1.19719,-0.38361 1.40154,-1.07258 -0.0639,1.25653 0.62331,1.3336 -0.56868,-2.58117 z m -2.02202,8.46037 4.63003,-9.88353"
       sodipodi:nodetypes="ccccccccc" />
  </g>
</svg>
