<?xml version="1.0" encoding="UTF-8" standalone="no"?>
<!-- Created with Inkscape (http://www.inkscape.org/) -->

<svg
   width="1920"
   height="1080"
   viewBox="0 0 507.99998 285.74999"
   version="1.1"
   id="svg1"
   inkscape:version="1.3.2 (091e20ef0f, 2023-11-25)"
   sodipodi:docname="normalisevectors2.svg"
   xmlns:inkscape="http://www.inkscape.org/namespaces/inkscape"
   xmlns:sodipodi="http://sodipodi.sourceforge.net/DTD/sodipodi-0.dtd"
   xmlns="http://www.w3.org/2000/svg"
   xmlns:svg="http://www.w3.org/2000/svg">
  <sodipodi:namedview
     id="namedview1"
     pagecolor="#505050"
     bordercolor="#eeeeee"
     borderopacity="1"
     inkscape:showpageshadow="0"
     inkscape:pageopacity="0"
     inkscape:pagecheckerboard="0"
     inkscape:deskcolor="#141414"
     inkscape:document-units="px"
     inkscape:clip-to-page="true"
     inkscape:zoom="2.3787302"
     inkscape:cx="915.19418"
     inkscape:cy="558.07087"
     inkscape:window-width="1920"
     inkscape:window-height="1045"
     inkscape:window-x="0"
     inkscape:window-y="0"
     inkscape:window-maximized="1"
     inkscape:current-layer="layer1" />
  <defs
     id="defs1" />
  <g
     inkscape:label="Layer 1"
     inkscape:groupmode="layer"
     id="layer1">
    <path
       d="M 0,0 0,285.74999 M 13.229166,0 l 0,285.74999 M 26.458332,0 l 0,285.74999 M 39.687498,0 l 0,285.74999 M 52.916665,0 l 0,285.74999 M 66.145831,0 l 0,285.74999 M 79.374997,0 l 0,285.74999 M 92.604163,0 l 0,285.74999 M 105.83333,0 l 0,285.74999 M 119.0625,0 l 0,285.74999 M 132.29166,0 l 0,285.74999 M 145.52083,0 l 0,285.74999 M 158.74999,0 l 0,285.74999 M 171.97916,0 l 0,285.74999 M 185.20833,0 l 0,285.74999 M 198.43749,0 l 0,285.74999 M 211.66666,0 l 0,285.74999 M 224.89582,0 l 0,285.74999 M 238.12499,0 l 0,285.74999 M 251.35416,0 l 0,285.74999 M 264.58332,0 l 0,285.74999 M 277.81249,0 l 0,285.74999 M 291.04166,0 l 0,285.74999 M 304.27082,0 l 0,285.74999 M 317.49999,0 l 0,285.74999 M 330.72915,0 l 0,285.74999 M 343.95832,0 l 0,285.74999 M 357.18749,0 l 0,285.74999 M 370.41665,0 l 0,285.74999 M 383.64582,0 l 0,285.74999 M 396.87498,0 l 0,285.74999 M 410.10415,0 l 0,285.74999 M 423.33332,0 l 0,285.74999 M 436.56248,0 l 0,285.74999 M 449.79165,0 l 0,285.74999 M 463.02082,0 l 0,285.74999 M 476.24998,0 l 0,285.74999 M 489.47915,0 l 0,285.74999 M 502.70831,0 l 0,285.74999 M 0,0 507.99998,0 M 0,13.229166 l 507.99998,0 M 0,26.458332 l 507.99998,0 M 0,39.687498 l 507.99998,0 M 0,52.916665 l 507.99998,0 M 0,66.145831 l 507.99998,0 M 0,79.374997 l 507.99998,0 M 0,92.604163 l 507.99998,0 M 0,105.83333 l 507.99998,0 M 0,119.0625 l 507.99998,0 M 0,132.29166 l 507.99998,0 M 0,145.52083 l 507.99998,0 M 0,158.74999 l 507.99998,0 M 0,171.97916 l 507.99998,0 M 0,185.20833 l 507.99998,0 M 0,198.43749 l 507.99998,0 M 0,211.66666 l 507.99998,0 M 0,224.89582 l 507.99998,0 M 0,238.12499 l 507.99998,0 M 0,251.35416 l 507.99998,0 M 0,264.58332 l 507.99998,0 M 0,277.81249 l 507.99998,0"
       style="fill:none;stroke:#000000;stroke-width:0.264583px"
       id="path1" />
    <circle
       style="fill:#fa0000;fill-opacity:1;fill-rule:evenodd;stroke:none;stroke-width:2.64583;stroke-linecap:round;stroke-linejoin:round"
       id="path2"
       cx="264.58331"
       cy="145.44327"
       r="1.5779909" />
  </g>
</svg>
