<?xml version="1.0" encoding="UTF-8" standalone="no"?>
<!-- Created with Inkscape (http://www.inkscape.org/) -->

<svg
   width="1920"
   height="1080"
   viewBox="0 0 507.99998 285.74999"
   version="1.1"
   id="svg1"
   inkscape:version="1.3.2 (091e20ef0f, 2023-11-25)"
   sodipodi:docname="normalisevectors1.svg"
   xmlns:inkscape="http://www.inkscape.org/namespaces/inkscape"
   xmlns:sodipodi="http://sodipodi.sourceforge.net/DTD/sodipodi-0.dtd"
   xmlns:xlink="http://www.w3.org/1999/xlink"
   xmlns="http://www.w3.org/2000/svg"
   xmlns:svg="http://www.w3.org/2000/svg">
  <sodipodi:namedview
     id="namedview1"
     pagecolor="#505050"
     bordercolor="#eeeeee"
     borderopacity="1"
     inkscape:showpageshadow="0"
     inkscape:pageopacity="0"
     inkscape:pagecheckerboard="0"
     inkscape:deskcolor="#141414"
     inkscape:document-units="px"
     inkscape:clip-to-page="true"
     inkscape:zoom="2.3787302"
     inkscape:cx="1114.4602"
     inkscape:cy="430.27159"
     inkscape:window-width="1920"
     inkscape:window-height="1045"
     inkscape:window-x="0"
     inkscape:window-y="0"
     inkscape:window-maximized="1"
     inkscape:current-layer="layer1" />
  <defs
     id="defs1">
    <linearGradient
       id="linearGradient13"
       inkscape:collect="always">
      <stop
         style="stop-color:#2900ff;stop-opacity:1;"
         offset="0"
         id="stop13" />
      <stop
         style="stop-color:#ff00c9;stop-opacity:1;"
         offset="1"
         id="stop14" />
    </linearGradient>
    <linearGradient
       inkscape:collect="always"
       xlink:href="#linearGradient13"
       id="linearGradient14"
       x1="247.68597"
       y1="124.37167"
       x2="295.52591"
       y2="124.37167"
       gradientUnits="userSpaceOnUse" />
  </defs>
  <g
     inkscape:label="Layer 1"
     inkscape:groupmode="layer"
     id="layer1">
    <path
       d="M 2.6189347,-2.6695663 V 283.08042 M 15.848101,-2.6695663 V 283.08042 M 29.077267,-2.6695663 V 283.08042 M 42.306433,-2.6695663 V 283.08042 M 55.5356,-2.6695663 V 283.08042 M 68.764766,-2.6695663 V 283.08042 M 81.993932,-2.6695663 V 283.08042 M 95.223098,-2.6695663 V 283.08042 M 108.45226,-2.6695663 V 283.08042 M 121.68143,-2.6695663 V 283.08042 M 134.91059,-2.6695663 V 283.08042 M 148.13976,-2.6695663 V 283.08042 M 161.36892,-2.6695663 V 283.08042 M 174.59809,-2.6695663 V 283.08042 M 187.82726,-2.6695663 V 283.08042 M 201.05642,-2.6695663 V 283.08042 M 214.28559,-2.6695663 V 283.08042 M 227.51475,-2.6695663 V 283.08042 M 240.74392,-2.6695663 V 283.08042 M 253.97309,-2.6695663 V 283.08042 M 267.20225,-2.6695663 V 283.08042 M 280.43142,-2.6695663 V 283.08042 M 293.66059,-2.6695663 V 283.08042 M 306.88975,-2.6695663 V 283.08042 M 320.11892,-2.6695663 V 283.08042 M 333.34808,-2.6695663 V 283.08042 M 346.57725,-2.6695663 V 283.08042 M 359.80642,-2.6695663 V 283.08042 M 373.03558,-2.6695663 V 283.08042 M 386.26475,-2.6695663 V 283.08042 M 399.49391,-2.6695663 V 283.08042 M 412.72308,-2.6695663 V 283.08042 M 425.95225,-2.6695663 V 283.08042 M 439.18141,-2.6695663 V 283.08042 M 452.41058,-2.6695663 V 283.08042 M 465.63975,-2.6695663 V 283.08042 M 478.86891,-2.6695663 V 283.08042 M 492.09808,-2.6695663 V 283.08042 M 505.32724,-2.6695663 V 283.08042 M 2.6189347,-2.6695663 H 510.61891 M 2.6189347,10.5596 H 510.61891 M 2.6189347,23.788766 H 510.61891 M 2.6189347,37.017932 H 510.61891 M 2.6189347,50.247099 H 510.61891 M 2.6189347,63.476265 H 510.61891 M 2.6189347,76.705431 H 510.61891 M 2.6189347,89.934597 H 510.61891 M 2.6189347,103.16376 H 510.61891 M 2.6189347,116.39293 H 510.61891 M 2.6189347,129.62209 H 510.61891 M 2.6189347,142.85126 H 510.61891 M 2.6189347,156.08042 H 510.61891 M 2.6189347,169.30959 H 510.61891 M 2.6189347,182.53876 H 510.61891 M 2.6189347,195.76792 H 510.61891 M 2.6189347,208.99709 H 510.61891 M 2.6189347,222.22625 H 510.61891 M 2.6189347,235.45542 H 510.61891 M 2.6189347,248.68459 H 510.61891 M 2.6189347,261.91375 H 510.61891 M 2.6189347,275.14292 H 510.61891"
       style="fill:none;stroke:#000000;stroke-width:0.264583px"
       id="path1" />
    <path
       style="fill:#ffffff;fill-opacity:1;fill-rule:evenodd;stroke:#ffffff;stroke-width:0.264583;stroke-linecap:round;stroke-linejoin:round;stroke-dasharray:none;stroke-opacity:1;paint-order:markers fill stroke"
       d="M 510.56305,142.87499 H -2.5630664"
       id="path9" />
    <path
       style="fill:#fafafa;fill-opacity:1;fill-rule:evenodd;stroke:#ffffff;stroke-width:0.264583;stroke-linecap:round;stroke-linejoin:round;stroke-dasharray:none;stroke-opacity:1;paint-order:markers fill stroke"
       d="M 253.99999,399.43805 V -113.68807"
       id="path10" />
    <path
       id="path12"
       style="display:inline;fill:#ffffff;fill-opacity:1;fill-rule:evenodd;stroke:url(#linearGradient14);stroke-width:1.32292;stroke-linecap:round;stroke-linejoin:round;paint-order:markers fill stroke"
       inkscape:transform-center-x="-0.085161138"
       inkscape:transform-center-y="1.6474707"
       transform="rotate(10.843387,246.74862,172.31105)"
       d="m 283.09688,108.66393 5.8838,-0.97682 5.8838,-0.97682 -2.09595,5.58393 -2.09595,5.58393 4.14005,-11.14307 z m -34.74945,33.36911 46.50816,-35.15729"
       sodipodi:nodetypes="ccccccccc" />
    <rect
       style="fill:none;fill-opacity:1;fill-rule:evenodd;stroke:none;stroke-width:1.32292;stroke-linecap:round;stroke-linejoin:round;stroke-dasharray:none;stroke-opacity:1;paint-order:markers fill stroke"
       id="rect14"
       width="82.075165"
       height="57.268959"
       x="251.41721"
       y="90.511383" />
  </g>
</svg>
